<svg id="Capa_1" enable-background="new 0 0 502 502" height="512" viewBox="0 0 502 502" width="512" xmlns="http://www.w3.org/2000/svg" xmlns:xlink="http://www.w3.org/1999/xlink"><linearGradient id="lg1"><stop offset="0" stop-color="#89c65e"/><stop offset="1" stop-color="#bcd986"/></linearGradient><linearGradient id="SVGID_1_" gradientUnits="userSpaceOnUse" x1="373.359" x2="373.359" xlink:href="#lg1" y1="199.045" y2="-8.711"/><linearGradient id="SVGID_2_" gradientUnits="userSpaceOnUse" x1="205.698" x2="205.698" xlink:href="#lg1" y1="291.19" y2="66.907"/><linearGradient id="SVGID_3_" gradientUnits="userSpaceOnUse" x1="126.305" x2="126.305" y1="442.926" y2="225.003"><stop offset="0" stop-color="#4e5660"/><stop offset="1" stop-color="#64768d"/></linearGradient><linearGradient id="lg2"><stop offset="0" stop-color="#d56262"/><stop offset="1" stop-color="#e5909c"/></linearGradient><linearGradient id="SVGID_4_" gradientUnits="userSpaceOnUse" x1="316.617" x2="178.059" xlink:href="#lg2" y1="367.416" y2="367.416"/><linearGradient id="SVGID_5_" gradientUnits="userSpaceOnUse" x1="405.475" x2="405.475" xlink:href="#lg2" y1="522.42" y2="341.541"/><linearGradient id="SVGID_6_" gradientUnits="userSpaceOnUse" x1="377.438" x2="377.438" xlink:href="#lg2" y1="412.053" y2="236.958"/><g><path d="m280.332 153.069c0-45.096 20.705-86.163 42.579-116.966 24.694-34.775 76.202-34.775 100.896 0 21.874 30.803 42.579 71.87 42.579 116.966s-20.705 86.163-42.579 116.966c-24.694 34.775-76.202 34.775-100.896 0-21.874-30.803-42.579-71.87-42.579-116.966z" fill="url(#SVGID_1_)"/><path d="m373.359 205.054c-6.351 0-11.5-5.148-11.5-11.5v-80.969c0-6.352 5.149-11.5 11.5-11.5s11.5 5.148 11.5 11.5v80.969c0 6.351-5.149 11.5-11.5 11.5z" fill="#6dab65"/><path d="m139.918 245.431c-31.887-31.887-46.286-75.567-52.599-112.815-7.128-42.051 29.293-78.472 71.345-71.345 37.248 6.314 80.928 20.712 112.815 52.599s46.286 75.567 52.599 112.815c7.128 42.051-29.293 78.472-71.345 71.344-37.248-6.312-80.928-20.71-112.815-52.598z" fill="url(#SVGID_2_)"/><path d="m234.325 219.778c-2.943 0-5.886-1.122-8.132-3.368l-57.253-57.254c-4.491-4.491-4.491-11.773 0-16.264 4.492-4.491 11.772-4.491 16.264 0l57.253 57.254c4.491 4.491 4.491 11.772 0 16.264-2.246 2.245-5.189 3.368-8.132 3.368z" fill="#6dab65"/><path d="m216.872 398.617c47.651-47.651 47.652-124.909.001-172.561-47.719-47.721-125.841-47.421-173.209.648-33.092 33.582-42.761 81.568-29.044 123.588.655 2.008-.293 4.19-2.185 5.129l-6.528 3.241c-7.448 3.698-7.963 14.128-.916 18.542l9.135 5.722c2.261 1.416 3.907 3.631 4.612 6.204l4.021 14.679c2.18 7.959 8.399 14.177 16.358 16.358l14.679 4.021c2.573.705 4.788 2.351 6.204 4.612l5.722 9.135c4.414 7.047 14.844 6.531 18.542-.916l3.241-6.527c.939-1.891 3.12-2.841 5.127-2.186 42.292 13.805 90.628 3.922 124.24-29.689z" fill="url(#SVGID_3_)"/><circle cx="297.005" cy="367.416" fill="url(#SVGID_4_)" r="96.525"/><circle cx="405.475" cy="395.453" fill="url(#SVGID_5_)" r="96.525"/><path d="m397.518 416.978c40.334-6.205 74.683-30.803 94.19-64.929-5.92-11.738-14.167-22.099-24.132-30.484-12.181 31.73-40.628 55.397-75.134 60.783-8.596 1.342-15.004 8.617-15.004 17.317 0 10.691 9.513 18.938 20.08 17.313z" fill="#c95b5b"/><circle cx="377.438" cy="286.982" fill="url(#SVGID_6_)" r="96.525"/><g fill="#8196ab"><path d="m74.506 250.889c-3.447 0-6.855-1.543-9.12-4.485-3.875-5.032-2.936-12.253 2.096-16.128 2.803-2.158 5.744-4.189 8.742-6.037 5.406-3.332 12.492-1.651 15.824 3.756 3.333 5.406 1.651 12.491-3.755 15.824-2.323 1.432-4.604 3.007-6.779 4.682-2.091 1.608-4.559 2.388-7.008 2.388z"/><path d="m39.738 309.051c-.612 0-1.231-.049-1.855-.15-6.269-1.017-10.528-6.923-9.512-13.191 1.564-9.647 4.49-19.014 8.695-27.837 2.732-5.733 9.597-8.167 15.329-5.433 5.733 2.732 8.166 9.596 5.434 15.329-3.267 6.853-5.539 14.127-6.754 21.62-.914 5.646-5.796 9.662-11.337 9.662z"/></g></g></svg>