<svg id="Capa_1" enable-background="new 0 0 512 512" height="512" viewBox="0 0 512 512" width="512" xmlns="http://www.w3.org/2000/svg"><g><g><g><path d="m282.361 120.07h-26.356v-45.673c.018-35.565 28.85-64.397 64.415-64.397h26.338v45.673c0 35.566-28.832 64.397-64.397 64.397z" fill="#a0e5a5"/></g><g><g><path d="m236.754 120.07h19.251v-33.383c0-25.995-21.073-47.069-47.069-47.069h-19.251v33.383c.001 25.996 21.074 47.069 47.069 47.069z" fill="#b8ecbc"/></g></g><g><g><g><g><g><path clip-rule="evenodd" d="m352.013 228.052v-11.746c0-53.026-42.984-96.013-96.008-96.013-53.024 0-96.008 42.986-96.008 96.013v11.744c0 21.263-7.17 22.652-20.069 39.555-18.729 24.542-29.853 55.201-29.853 88.457 0 80.794 64.867 145.79 145.657 145.938 66.52.122 122.693-44.267 140.398-105.045 3.706-12.722 5.727-26.161 5.804-40.061.002-.277.002-.554.002-.831 0-13.808-1.918-27.169-5.501-39.83-5.092-17.99-13.548-34.568-24.645-49.01-12.854-16.73-19.777-18.073-19.777-39.171z" fill="#fff2a0" fill-rule="evenodd"/></g></g></g><g><g><path clip-rule="evenodd" d="m255.81 459.02c-27.608-.05-53.457-10.743-72.785-30.109s-29.973-45.237-29.973-72.849c0-22.775 7.276-44.346 21.04-62.383 18.625-24.405 28.883-35.34 28.883-65.629v-11.744c0-29.243 23.789-53.033 53.03-53.033 29.242 0 53.031 23.791 53.031 53.033v11.746c0 30.454 10.184 41.292 28.676 65.358 13.9 18.09 21.247 39.755 21.247 62.653 0 27.503-10.709 53.359-30.154 72.805-19.444 19.444-45.295 30.153-72.794 30.153-.001 0-.201-.001-.201-.001z" fill="#fff7bf" fill-rule="evenodd"/></g></g></g></g></g><g><path d="m411.734 354.11c-.785-4.182-4.363-7.433-8.556-7.966-4.173-.531-8.354 1.723-10.204 5.496-1.817 3.705-1.157 8.248 1.67 11.263 2.857 3.048 7.43 3.986 11.261 2.331 4.263-1.84 6.754-6.569 5.829-11.124z"/><path d="m397.554 393.089c-5.238-1.761-10.904 1.06-12.664 6.295-18.619 55.426-70.391 92.616-128.887 92.616h-.253c-74.812-.137-135.676-61.118-135.676-135.938 0-30.066 9.614-58.556 27.803-82.39 2.92-3.827 5.576-6.859 7.919-9.535 9.069-10.355 14.201-17.138 14.201-36.086v-11.744c0-44.046 33.277-80.464 76.008-85.435v23.193c-30.02 4.806-53.031 30.887-53.031 62.241v11.744c0 24.664-7.158 33.971-22.842 54.362-1.284 1.669-2.614 3.398-3.99 5.201-15.106 19.794-23.09 43.464-23.09 68.45 0 30.278 11.682 58.659 32.895 79.913 21.211 21.253 49.565 32.988 79.839 33.045l.225.001c30.17 0 58.533-11.749 79.865-33.082 21.334-21.335 33.083-49.702 33.083-79.876 0-25.12-8.064-48.892-23.317-68.746-1.315-1.712-2.589-3.357-3.82-4.947-15.645-20.211-22.785-29.436-22.785-54.318v-11.746c0-31.354-23.011-57.435-53.031-62.241v-23.193c42.732 4.97 76.009 41.389 76.009 85.435v11.746c0 18.927 5.101 25.676 14.115 35.976 2.285 2.611 4.875 5.57 7.732 9.288 9.555 12.436 16.819 26.275 21.591 41.134 1.69 5.257 7.317 8.152 12.579 6.463 5.259-1.689 8.152-7.321 6.463-12.579-5.478-17.056-13.813-32.938-24.773-47.204-3.245-4.223-6.059-7.438-8.541-10.274-7.04-8.044-9.165-10.472-9.165-22.804v-11.746c0-38.899-21.058-72.971-52.373-91.416 27.566-10.903 47.117-37.82 47.117-69.217v-45.675c0-5.523-4.478-10-10-10h-26.34c-31.723 0-58.882 19.968-69.566 48-10.434-11.297-25.364-18.381-41.918-18.381h-19.25c-5.523 0-10 4.477-10 10v33.383c0 20.808 11.194 39.051 27.877 49.022-34.157 17.623-57.566 53.27-57.566 94.282v11.744c0 12.352-2.144 14.8-9.246 22.91-2.425 2.769-5.443 6.215-8.773 10.578-20.872 27.35-31.904 60.036-31.904 94.524 0 41.744 16.143 80.907 45.455 110.275 29.313 29.369 68.443 45.586 110.185 45.662h.29c67.093-.002 126.487-42.668 147.845-106.247 1.758-5.234-1.06-10.904-6.295-12.663zm-98.518-176.783v11.746c0 31.718 10.729 45.579 26.97 66.56 1.218 1.572 2.477 3.199 3.776 4.891 12.546 16.328 19.177 35.886 19.177 56.56 0 24.832-9.669 48.177-27.226 65.734-15.181 15.182-34.689 24.464-55.728 26.697v-32.047c0-5.523-4.478-10-10-10-5.523 0-10 4.477-10 10v32.053c-21.201-2.221-40.771-11.492-55.902-26.653-17.444-17.479-27.051-40.841-27.051-65.785 0-20.564 6.566-40.038 18.989-56.316 1.36-1.782 2.674-3.491 3.944-5.141 16.252-21.13 26.989-35.089 26.989-66.556v-11.744c0-20.287 14.11-37.34 33.031-41.86v96.979c0 5.523 4.477 10 10 10 5.522 0 10-4.477 10-10v-96.979c18.921 4.522 33.031 21.574 33.031 41.861zm-33.031-141.904c.016-29.997 24.426-54.402 54.415-54.402h16.338v35.673c0 29.995-24.402 54.397-54.397 54.397h-16.355v-35.668zm-66.319-24.784h9.25c20.44 0 37.069 16.629 37.069 37.069v23.383h-9.251c-20.44 0-37.069-16.629-37.069-37.069v-23.383z"/><path d="m230.239 328.054c-5.523 0-10 4.477-10 10v26.017c0 5.523 4.477 10 10 10s10-4.477 10-10v-26.017c0-5.523-4.477-10-10-10z"/><path d="m281.772 374.07c5.522 0 10-4.477 10-10v-26.017c0-5.523-4.478-10-10-10s-10 4.477-10 10v26.017c0 5.523 4.477 10 10 10z"/></g></g></svg>